HIERARCHY
ROOT Hips
{
	OFFSET 0.000000 100.481300 0.000000
	CHANNELS 6 Xposition Yposition Zposition Xrotation Yrotation Zrotation
	JOINT Spine
	{
		OFFSET -0.279200 12.230698 -2.892100
		CHANNELS 3 Xrotation Yrotation Zrotation
		JOINT Spine1
		{
			OFFSET -0.325700 14.269203 -3.374200
			CHANNELS 3 Xrotation Yrotation Zrotation
			JOINT Spine2
			{
				OFFSET -0.372300 16.307602 -0.352600
				CHANNELS 3 Xrotation Yrotation Zrotation
				JOINT Neck
				{
					OFFSET -0.418800 17.814194 8.416900
					CHANNELS 3 Xrotation Yrotation Zrotation
					JOINT Head
					{
						OFFSET 0.000000 7.031097 3.806800
						CHANNELS 3 Xrotation Yrotation Zrotation
						JOINT HeadTop_End
						{
							OFFSET 0.000000 24.646606 12.978600
							CHANNELS 3 Xrotation Yrotation Zrotation
							End Site
							{
								OFFSET 0.000000 27.854965 0.000000
							}
						}
					}
				}
				JOINT LeftShoulder
				{
					OFFSET 16.952999 14.495407 -7.737500
					CHANNELS 3 Xrotation Yrotation Zrotation
					JOINT LeftArm
					{
						OFFSET 9.308998 -2.777710 0.208600
						CHANNELS 3 Xrotation Yrotation Zrotation
						JOINT LeftForeArm
						{
							OFFSET 29.972298 0.000000 0.000000
							CHANNELS 3 Xrotation Yrotation Zrotation
							JOINT LeftHand
							{
								OFFSET 26.026505 0.000000 0.000000
								CHANNELS 3 Xrotation Yrotation Zrotation
								JOINT LeftHandThumb1
								{
									OFFSET 12.240501 -7.147949 9.207150
									CHANNELS 3 Xrotation Yrotation Zrotation
									JOINT LeftHandThumb2
									{
										OFFSET 4.138618 -2.389435 2.389433
										CHANNELS 3 Xrotation Yrotation Zrotation
										JOINT LeftHandThumb3
										{
											OFFSET 2.726913 -1.574387 1.574386
											CHANNELS 3 Xrotation Yrotation Zrotation
											JOINT LeftHandThumb4
											{
												OFFSET 3.941010 -2.275345 2.275342
												CHANNELS 3 Xrotation Yrotation Zrotation
												End Site
												{
													OFFSET -0.005798 5.087799 0.009903
												}
											}
										}
									}
								}
								JOINT LeftHandIndex1
								{
									OFFSET 24.424698 -1.985611 5.953459
									CHANNELS 3 Xrotation Yrotation Zrotation
									JOINT LeftHandIndex2
									{
										OFFSET 6.426697 0.000000 0.000000
										CHANNELS 3 Xrotation Yrotation Zrotation
										JOINT LeftHandIndex3
										{
											OFFSET 5.337898 0.000000 0.000000
											CHANNELS 3 Xrotation Yrotation Zrotation
											JOINT LeftHandIndex4
											{
												OFFSET 4.409401 0.000000 0.000000
												CHANNELS 3 Xrotation Yrotation Zrotation
												End Site
												{
													OFFSET 0.000000 4.409363 0.014373
												}
											}
										}
									}
								}
								JOINT LeftHandMiddle1
								{
									OFFSET 23.810104 0.000000 0.000000
									CHANNELS 3 Xrotation Yrotation Zrotation
									JOINT LeftHandMiddle2
									{
										OFFSET 7.176498 0.000000 0.000000
										CHANNELS 3 Xrotation Yrotation Zrotation
										JOINT LeftHandMiddle3
										{
											OFFSET 6.774902 0.000000 0.000000
											CHANNELS 3 Xrotation Yrotation Zrotation
											JOINT LeftHandMiddle4
											{
												OFFSET 5.403328 0.000000 0.000000
												CHANNELS 3 Xrotation Yrotation Zrotation
												End Site
												{
													OFFSET -0.027702 5.403244 0.017414
												}
											}
										}
									}
								}
								JOINT LeftHandRing1
								{
									OFFSET 22.908401 -0.839279 -6.020567
									CHANNELS 3 Xrotation Yrotation Zrotation
									JOINT LeftHandRing2
									{
										OFFSET 6.337502 0.000000 0.000000
										CHANNELS 3 Xrotation Yrotation Zrotation
										JOINT LeftHandRing3
										{
											OFFSET 5.779297 0.000000 0.000000
											CHANNELS 3 Xrotation Yrotation Zrotation
											JOINT LeftHandRing4
											{
												OFFSET 4.965698 0.000000 0.000000
												CHANNELS 3 Xrotation Yrotation Zrotation
												End Site
												{
													OFFSET 0.000000 4.965668 0.016186
												}
											}
										}
									}
								}
								JOINT LeftHandPinky1
								{
									OFFSET 20.037003 -1.530319 -10.950146
									CHANNELS 3 Xrotation Yrotation Zrotation
									JOINT LeftHandPinky2
									{
										OFFSET 5.254700 0.000000 0.000000
										CHANNELS 3 Xrotation Yrotation Zrotation
										JOINT LeftHandPinky3
										{
											OFFSET 4.810204 0.000000 0.000000
											CHANNELS 3 Xrotation Yrotation Zrotation
											JOINT LeftHandPinky4
											{
												OFFSET 3.647202 0.000000 0.000000
												CHANNELS 3 Xrotation Yrotation Zrotation
												End Site
												{
													OFFSET 0.000000 3.647186 0.011889
												}
											}
										}
									}
								}
							}
						}
					}
				}
				JOINT RightShoulder
				{
					OFFSET -15.141001 14.495407 -7.737500
					CHANNELS 3 Xrotation Yrotation Zrotation
					JOINT RightArm
					{
						OFFSET -9.308998 -2.777710 0.208500
						CHANNELS 3 Xrotation Yrotation Zrotation
						JOINT RightForeArm
						{
							OFFSET -29.972300 0.000000 0.000000
							CHANNELS 3 Xrotation Yrotation Zrotation
							JOINT RightHand
							{
								OFFSET -26.026505 0.000000 0.000000
								CHANNELS 3 Xrotation Yrotation Zrotation
								JOINT RightHandThumb1
								{
									OFFSET -12.240601 -7.148026 9.207092
									CHANNELS 3 Xrotation Yrotation Zrotation
									JOINT RightHandThumb2
									{
										OFFSET -4.138618 -2.389435 2.389433
										CHANNELS 3 Xrotation Yrotation Zrotation
										JOINT RightHandThumb3
										{
											OFFSET -2.726974 -1.574417 1.574421
											CHANNELS 3 Xrotation Yrotation Zrotation
											JOINT RightHandThumb4
											{
												OFFSET -3.941010 -2.275345 2.275343
												CHANNELS 3 Xrotation Yrotation Zrotation
												End Site
												{
													OFFSET 0.005814 5.087799 0.009927
												}
											}
										}
									}
								}
								JOINT RightHandIndex1
								{
									OFFSET -24.424698 -1.985657 5.953444
									CHANNELS 3 Xrotation Yrotation Zrotation
									JOINT RightHandIndex2
									{
										OFFSET -6.426697 0.000000 0.000000
										CHANNELS 3 Xrotation Yrotation Zrotation
										JOINT RightHandIndex3
										{
											OFFSET -5.337898 0.000000 0.000000
											CHANNELS 3 Xrotation Yrotation Zrotation
											JOINT RightHandIndex4
											{
												OFFSET -4.409401 0.000000 0.000000
												CHANNELS 3 Xrotation Yrotation Zrotation
												End Site
												{
													OFFSET 0.000000 4.409363 0.014408
												}
											}
										}
									}
								}
								JOINT RightHandMiddle1
								{
									OFFSET -23.810097 0.000000 0.000000
									CHANNELS 3 Xrotation Yrotation Zrotation
									JOINT RightHandMiddle2
									{
										OFFSET -7.176498 0.000000 0.000000
										CHANNELS 3 Xrotation Yrotation Zrotation
										JOINT RightHandMiddle3
										{
											OFFSET -6.774902 0.000000 0.000000
											CHANNELS 3 Xrotation Yrotation Zrotation
											JOINT RightHandMiddle4
											{
												OFFSET -5.403328 0.000000 0.000000
												CHANNELS 3 Xrotation Yrotation Zrotation
												End Site
												{
													OFFSET 0.027702 5.403244 0.017457
												}
											}
										}
									}
								}
								JOINT RightHandRing1
								{
									OFFSET -22.908302 -0.839325 -6.020576
									CHANNELS 3 Xrotation Yrotation Zrotation
									JOINT RightHandRing2
									{
										OFFSET -6.337502 0.000000 0.000000
										CHANNELS 3 Xrotation Yrotation Zrotation
										JOINT RightHandRing3
										{
											OFFSET -5.779297 0.000000 0.000000
											CHANNELS 3 Xrotation Yrotation Zrotation
											JOINT RightHandRing4
											{
												OFFSET -4.965698 0.000000 0.000000
												CHANNELS 3 Xrotation Yrotation Zrotation
												End Site
												{
													OFFSET 0.000000 4.965668 0.016226
												}
											}
										}
									}
								}
								JOINT RightHandPinky1
								{
									OFFSET -20.037003 -1.530334 -10.950259
									CHANNELS 3 Xrotation Yrotation Zrotation
									JOINT RightHandPinky2
									{
										OFFSET -5.254700 0.000000 0.000000
										CHANNELS 3 Xrotation Yrotation Zrotation
										JOINT RightHandPinky3
										{
											OFFSET -4.810204 0.000000 0.000000
											CHANNELS 3 Xrotation Yrotation Zrotation
											JOINT RightHandPinky4
											{
												OFFSET -3.647202 0.000000 0.000000
												CHANNELS 3 Xrotation Yrotation Zrotation
												End Site
												{
													OFFSET 0.000000 3.647186 0.011917
												}
											}
										}
									}
								}
							}
						}
					}
				}
			}
		}
	}
	JOINT LeftUpLeg
	{
		OFFSET 15.427100 -6.655098 0.678600
		CHANNELS 3 Xrotation Yrotation Zrotation
		JOINT LeftLeg
		{
			OFFSET 4.081073 -39.591068 13.024000
			CHANNELS 3 Xrotation Yrotation Zrotation
			JOINT LeftFoot
			{
				OFFSET -4.081074 -37.707932 -15.979700
				CHANNELS 3 Xrotation Yrotation Zrotation
				JOINT LeftToeBase
				{
					OFFSET 5.346399 -15.068900 20.645000
					CHANNELS 3 Xrotation Yrotation Zrotation
					JOINT LeftToe_End
					{
						OFFSET 2.754700 0.931300 11.300900
						CHANNELS 3 Xrotation Yrotation Zrotation
						End Site
						{
							OFFSET 0.000000 11.669021 0.000000
						}
					}
				}
			}
		}
	}
	JOINT RightUpLeg
	{
		OFFSET -15.569500 -6.655098 0.678600
		CHANNELS 3 Xrotation Yrotation Zrotation
		JOINT RightLeg
		{
			OFFSET -4.081825 -39.591045 13.023800
			CHANNELS 3 Xrotation Yrotation Zrotation
			JOINT RightFoot
			{
				OFFSET 4.081824 -37.707954 -15.979600
				CHANNELS 3 Xrotation Yrotation Zrotation
				JOINT RightToeBase
				{
					OFFSET -5.346400 -15.068900 20.645000
					CHANNELS 3 Xrotation Yrotation Zrotation
					JOINT RightToe_End
					{
						OFFSET -2.754700 0.931300 11.300900
						CHANNELS 3 Xrotation Yrotation Zrotation
						End Site
						{
							OFFSET 0.000000 11.669021 0.000000
						}
					}
				}
			}
		}
	}
}
MOTION
Frames: 5
Frame Time: 0.033333
0.172710 92.923561 -0.052435 5.323627 -1.223592 -0.525654 16.613088 15.312616 -4.539567 2.696058 4.642232 -0.713094 2.701344 4.619613 -0.845599 0.268986 -4.399783 2.047525 -13.670462 -39.648261 5.746367 -0.000000 -0.000002 0.000001 0.035797 5.909272 -3.017099 41.970874 6.235941 -63.842857 89.842935 3.994468 75.196537 -24.001705 -19.777002 -33.722082 25.512182 -11.152441 27.527638 -1.941107 17.530360 5.830961 -7.296405 -25.237564 -0.221920 0.000001 -0.000002 0.000001 1.270670 5.885260 -37.153992 4.581965 5.712207 -77.451791 4.581959 5.712182 -77.451791 0.000000 -0.000001 0.000001 -0.916172 1.730083 -49.742451 3.738799 5.457704 -68.804423 5.134627 5.807136 -82.954341 0.000001 0.000001 0.000002 -4.026743 8.208125 -48.973238 4.083667 5.578596 -72.389453 4.960605 5.783087 -81.231433 0.000001 0.000001 0.000000 -3.356636 1.214808 -41.783727 5.096584 5.802358 -82.578148 6.653111 5.795984 -97.892491 -0.000000 -0.000000 0.000002 -6.650376 16.293799 12.831015 0.183742 -17.543723 72.368962 89.678096 -14.292640 -33.611460 -0.083939 -6.249445 28.529652 -42.499291 -3.865981 1.609499 14.001565 -12.877130 -11.747971 -14.273647 4.711050 3.039394 -0.000001 -0.000002 -0.000000 -1.886886 -2.679783 18.484266 3.648250 -4.546797 77.475041 3.648249 -4.546817 77.475061 -0.000003 0.000001 0.000000 -3.465268 -3.783528 32.905191 3.926318 -4.599601 80.961326 4.087598 -4.622308 82.967674 -0.000000 -0.000003 -0.000004 -0.776746 -8.002523 44.320059 3.788761 -4.575673 79.241717 3.949291 -4.603196 81.247955 -0.000001 -0.000001 0.000001 2.653403 -4.347888 47.441811 4.169337 -4.631602 83.980591 4.169288 -4.631682 83.980536 -0.000000 0.000003 -0.000003 -27.424396 5.538795 -10.570536 22.050272 -19.536491 2.920955 4.856110 -1.613904 8.721130 -4.395289 -2.853434 0.829164 0.000000 0.000001 -0.000000 -2.267173 -3.515563 1.201115 23.799547 -44.308397 -0.391100 -17.625298 -7.628966 18.618136 -0.000034 -12.509008 -0.000012 0.000000 0.000000 -0.000000 
0.033358 92.686523 0.287059 5.345835 -1.508805 -0.482167 16.487153 15.534003 -4.442674 2.649934 4.687383 -0.737644 2.655860 4.667333 -0.862861 0.300716 -4.357819 1.928278 -13.459198 -39.421273 5.597092 0.000001 0.000001 -0.000001 0.042567 5.833309 -3.122998 42.547168 6.992886 -64.193847 90.186972 4.269447 75.349199 -23.321780 -15.800147 -32.243318 25.725202 -10.985379 27.227381 -2.175142 17.688578 5.967037 -7.301433 -25.224555 -0.441948 -0.000001 -0.000002 -0.000000 1.311390 5.938274 -37.452444 4.566147 5.708691 -77.292702 4.566130 5.708650 -77.292695 -0.000001 0.000001 -0.000001 -0.858335 1.820665 -50.066349 3.729637 5.454155 -68.708028 5.119572 5.805272 -82.805867 0.000000 0.000003 0.000002 -3.893734 8.322007 -49.158002 4.067471 5.573461 -72.222789 4.940864 5.780031 -81.035427 -0.000000 -0.000000 -0.000002 -3.230443 1.402172 -42.021154 5.073991 5.799401 -82.354576 6.623900 5.799936 -97.603396 -0.000000 -0.000002 0.000001 -6.609262 16.500108 12.717093 0.346394 -17.698212 72.379030 90.614651 -15.085613 -33.437358 -0.040852 -6.693157 28.565255 -42.348259 -3.879159 1.695711 13.789432 -13.063188 -11.838663 -14.199135 4.670620 3.234469 -0.000000 -0.000002 -0.000001 -1.846655 -2.751562 18.856718 3.635673 -4.543984 77.316252 3.635670 -4.543994 77.316218 0.000002 0.000001 0.000001 -3.387942 -3.869483 33.290059 3.914409 -4.597684 80.813132 4.075646 -4.620857 82.819466 -0.000000 -0.000001 0.000001 -0.661003 -8.101710 44.530221 3.773168 -4.572694 79.046107 3.933585 -4.600751 81.052284 -0.000002 0.000001 0.000001 2.770330 -4.484943 47.674830 4.150835 -4.629624 83.751486 4.150805 -4.629693 83.751459 0.000002 -0.000002 0.000002 -27.590916 5.423025 -10.377472 22.849754 -19.146723 2.915641 4.090001 -1.688164 8.750771 -4.376762 -2.560247 0.847290 -0.000001 -0.000001 -0.000000 -2.388093 -3.243161 1.363156 24.199543 -44.314704 -0.765665 -17.866766 -7.977825 19.041121 -0.008310 -12.222460 -0.007570 0.000000 0.000001 0.000000 
-0.143696 92.355499 0.704891 5.364978 -1.652719 -0.515866 16.235546 15.630321 -4.353394 2.620402 4.698231 -0.750814 2.626565 4.678702 -0.873990 0.322403 -4.281748 1.825717 -13.105787 -38.911922 5.754218 0.000000 -0.000000 0.000001 0.055349 5.860038 -3.233892 42.698398 7.838903 -64.289654 90.519493 4.300183 75.186381 -22.871976 -11.292207 -31.848294 26.305435 -10.430542 26.541118 -2.273018 17.752486 6.025986 -7.303595 -25.219323 -0.530970 -0.000001 -0.000000 -0.000001 1.348936 5.986549 -37.645155 4.527385 5.699851 -76.902828 4.527386 5.699830 -76.902828 0.000000 -0.000000 -0.000003 -0.764022 1.956401 -50.390530 3.704705 5.444434 -68.445531 5.079510 5.800079 -82.409490 -0.000000 0.000001 0.000003 -3.669461 8.473038 -49.258737 4.021392 5.558574 -71.747831 4.885467 5.771045 -80.484982 0.000001 0.000000 -0.000001 -2.998492 1.726850 -42.343119 5.013561 5.791012 -81.756244 6.546361 5.809724 -96.836735 0.000000 0.000000 -0.000000 -6.502705 16.550392 12.517253 0.135504 -17.551503 72.191534 91.431009 -15.815945 -33.607102 -0.165026 -6.431762 28.812221 -41.943516 -3.876179 1.774917 13.700669 -13.139233 -11.878951 -14.169078 4.654385 3.313412 -0.000001 -0.000001 -0.000001 -1.784017 -2.832313 19.244579 3.604852 -4.536975 76.927014 3.604834 -4.536978 76.927055 0.000005 -0.000001 -0.000000 -3.261239 -3.980178 33.773728 3.882725 -4.592475 80.417534 4.043798 -4.616732 82.423834 0.000001 0.000001 0.000000 -0.480719 -8.243253 44.686362 3.729415 -4.564026 78.496666 3.889559 -4.593616 80.502877 -0.000000 0.000003 0.000001 2.962329 -4.716549 47.967087 4.101426 -4.623969 83.138989 4.101394 -4.624050 83.138927 0.000004 -0.000001 -0.000001 -27.892778 5.128300 -10.210113 23.977695 -18.768663 3.008768 3.169663 -1.829108 8.750651 -4.325435 -2.037044 0.874346 0.000000 -0.000000 0.000000 -2.429237 -3.051280 1.489565 24.838345 -44.150619 -0.811499 -18.229428 -8.546810 19.389119 -0.016180 -11.580278 -0.001998 -0.000000 0.000000 0.000000 
-0.366682 91.844292 1.216429 5.340802 -1.488081 -0.478279 15.874808 15.589319 -4.351213 2.599764 4.678197 -0.766595 2.604014 4.658460 -0.888648 0.303639 -4.182931 1.758878 -12.429319 -38.229593 6.308692 0.000001 -0.000000 0.000000 0.070313 5.983659 -3.310759 42.625435 9.262734 -64.130115 90.793957 4.026280 74.705474 -22.599602 -8.279327 -32.734392 26.959791 -9.844437 25.621646 -2.166292 17.678792 5.965214 -7.310541 -25.218395 -0.660802 -0.000001 -0.000002 -0.000001 1.373320 6.017325 -37.866261 4.451283 5.681699 -76.135224 4.451261 5.681674 -76.135224 -0.000001 0.000000 -0.000002 -0.723202 2.073247 -50.742964 3.657337 5.425563 -67.945335 5.007062 5.790033 -81.691965 -0.000002 0.000000 0.000001 -3.448835 8.556543 -49.291409 3.934617 5.529330 -70.849723 4.782997 5.753037 -79.464265 0.000001 -0.000001 -0.000001 -2.789918 2.006534 -42.473791 4.911023 5.775321 -80.738607 6.415538 5.823821 -95.545740 -0.000001 -0.000002 0.000002 -6.299126 16.219811 12.088765 0.132918 -17.295284 71.845783 91.028383 -15.672284 -34.691163 -0.506684 -4.916079 28.057985 -41.580829 -3.619655 2.166119 13.797364 -13.053110 -11.839376 -14.128315 4.635925 3.428828 -0.000000 -0.000002 -0.000000 -1.718709 -2.916230 19.784048 3.544334 -4.522515 76.160721 3.544326 -4.522559 76.160742 -0.000000 -0.000000 0.000001 -3.175546 -4.053730 34.389535 3.825463 -4.582480 79.701354 3.986192 -4.608717 81.707641 0.000002 -0.000002 -0.000001 -0.330941 -8.320001 44.797104 3.648485 -4.546860 77.477889 3.808083 -4.579303 79.483956 -0.000000 -0.000002 -0.000002 3.086086 -4.892694 48.018678 4.017633 -4.613147 82.098368 4.017598 -4.613218 82.098362 -0.000001 -0.000003 -0.000002 -28.285862 4.465235 -10.266434 25.485239 -17.948788 3.205119 1.940562 -2.011323 8.680041 -4.247103 -1.929395 0.862055 0.000001 -0.000001 -0.000000 -2.647843 -3.376065 1.330679 26.519219 -43.533105 -0.385853 -18.700337 -9.206104 19.883056 -0.845968 -11.432358 -0.334181 0.000000 -0.000002 -0.000000 
-0.554699 90.949463 1.820054 5.162924 -1.060893 -0.632662 15.511203 15.621981 -4.068414 2.529465 4.648585 -0.806218 2.535410 4.628187 -0.928124 0.246169 -4.108785 1.706382 -11.337121 -37.683209 6.930020 0.000001 -0.000001 -0.000000 0.077709 6.221107 -3.303514 42.400790 11.198345 -63.756940 90.807829 3.281929 73.952651 -22.383630 -7.513404 -34.014404 25.582655 -10.949224 25.053395 -2.278941 17.762993 6.023342 -7.341531 -25.140514 -2.012444 0.000003 -0.000001 -0.000000 1.352244 6.004847 -38.969211 4.313811 5.646174 -74.742576 4.313812 5.646146 -74.742589 0.000000 -0.000000 -0.000003 -0.949139 2.087128 -51.660774 3.610122 5.406273 -67.445167 4.927844 5.777962 -80.905879 0.000002 0.000001 -0.000000 -3.383203 8.429125 -49.638680 3.860918 5.503284 -70.082823 4.690112 5.735061 -78.536247 0.000003 -0.000001 -0.000001 -3.199528 1.675799 -42.857087 4.791577 5.754655 -79.549478 6.258170 5.836892 -93.996654 -0.000001 -0.000002 0.000001 -6.016500 15.533334 11.450542 1.471514 -17.556146 71.436395 87.758792 -13.035637 -37.188239 -0.848150 -2.075125 24.083691 -43.360076 -1.870929 4.114753 13.695534 -13.149021 -11.873696 -13.684531 4.431221 4.642950 -0.000001 0.000002 0.000001 -1.730906 -3.001718 21.303794 3.435065 -4.494287 74.770429 3.435036 -4.494288 74.770409 0.000002 0.000001 0.000001 -3.323532 -4.015242 35.661681 3.762858 -4.570682 78.916812 3.923222 -4.599137 80.923009 -0.000001 -0.000003 -0.000001 -0.358023 -8.158226 45.228830 3.575174 -4.530003 76.551592 3.734223 -4.565009 78.557612 0.000001 0.000001 -0.000000 2.574192 -4.399463 48.212830 3.919689 -4.598532 80.878715 3.919655 -4.598605 80.878688 -0.000000 0.000001 -0.000004 -28.964309 3.940092 -10.133170 27.933766 -17.179075 3.129077 0.263647 -2.218057 9.031580 -4.145527 -2.245412 0.812580 0.000000 -0.000001 0.000000 -2.659523 -4.476623 1.666246 28.592099 -42.874911 -0.265558 -19.543586 -10.470340 20.710513 -2.533962 -10.772086 -1.543210 -0.000000 0.000003 0.000000 
